# xmcd
#
# Track frame offsets:
#	150
#	13097
#	37697
#	54335
#	69887
#	93762
#	105852
#	127552
#	145290
#	162140
#	172325
#	189637
#	214534
#
# Disc length: 3133
#
# Revision: 1
# Processed by: cddbd v1.5.1PL0 Copyright (c) Steve Scherf et al.
# Submitted via: audiograbber 1.81.01
# Normalized: r0:DSETVAR1
#
DISCID=990c3b0d
DTITLE=Various Artist - Sinfonia de Pardais (Homenagem a Herivelto Martins)
DYEAR=2000
DGENRE=Blues
TTITLE0=Caetano Veloso - Pensando em ti
TTITLE1=João Marcelo and José Carlos - Camisola do dia
TTITLE2=Beth Carvalho - Caminhemos
TTITLE3=Renata Arruda - Culpe-me
TTITLE4=Moraes Moreira - Odete
TTITLE5=Ney Matogrosso - Atiraste uma pedra
TTITLE6=Leny Andrade - Praça Onze
TTITLE7=Paulinho Moska - Quarto Vazio
TTITLE8=Oswaldo Montenegro - Cabelos Brancos
TTITLE9=Zeca Pagodinho - Nega Manhosa
TTITLE10=Maria Bethânia - Segredo
TTITLE11=Baby do Brasil - Ave Maria no morro
TTITLE12=Todos - Obé
EXTD=
EXTT0=
EXTT1=
EXTT2=
EXTT3=
EXTT4=
EXTT5=
EXTT6=
EXTT7=
EXTT8=
EXTT9=
EXTT10=
EXTT11=
EXTT12=
PLAYORDER=
